<?xml version="1.0" encoding="iso-8859-1"?>
<!-- Generator: Adobe Illustrator 19.0.0, SVG Export Plug-In . SVG Version: 6.00 Build 0)  -->
<svg version="1.1" id="Layer_1" xmlns="http://www.w3.org/2000/svg" xmlns:xlink="http://www.w3.org/1999/xlink" x="0px" y="0px"
	 viewBox="0 0 512 512" style="enable-background:new 0 0 512 512;" xml:space="preserve">
<polygon style="fill:#F07057;" points="375.423,62.375 256.001,10.199 136.578,62.375 74.549,177.158 74.549,501.801 
	437.453,501.801 437.453,177.158 "/>
<g>
	<rect x="127.185" y="271.34" style="fill:#84B3D2;" width="257.632" height="230.461"/>
	<path style="fill:#84B3D2;" d="M299.48,192.231h-86.958v-43.479c0-24.013,19.466-43.479,43.479-43.479l0,0
		c24.013,0,43.479,19.466,43.479,43.479V192.231z"/>
</g>
<path d="M301.454,415.095l-4.027-3.553c-4.223-3.728-10.668-3.325-14.396,0.898c-3.727,4.223-3.325,10.668,0.898,14.396l4.027,3.553
	c1.939,1.711,4.347,2.552,6.745,2.552c2.824,0,5.635-1.167,7.65-3.45C306.079,425.267,305.677,418.822,301.454,415.095z"/>
<path d="M256.001,95.074c-29.598,0-53.678,24.08-53.678,53.678v43.479c0,5.633,4.566,10.199,10.199,10.199h86.958
	c5.633,0,10.199-4.566,10.199-10.199v-43.479C309.679,119.154,285.599,95.074,256.001,95.074z M289.281,182.033h-66.56v-33.28
	c0-18.35,14.93-33.28,33.28-33.28s33.28,14.93,33.28,33.28V182.033z"/>
<path d="M437.453,512c5.633,0,10.199-4.566,10.199-10.199V217.53l12.705,23.595c1.842,3.421,5.358,5.366,8.989,5.366
	c1.633,0,3.288-0.393,4.826-1.221c4.959-2.67,6.815-8.856,4.144-13.816l-93.92-173.929c-1.082-2.002-2.804-3.586-4.89-4.497
	L260.084,0.853c-2.604-1.137-5.563-1.137-8.166,0L132.495,53.028c-2.086,0.912-3.807,2.495-4.89,4.497L33.684,231.454
	c-2.67,4.96-0.815,11.146,4.144,13.816c1.538,0.828,3.193,1.221,4.826,1.221c3.631,0,7.147-1.945,8.989-5.366l12.705-23.595v284.271
	c0,5.633,4.566,10.199,10.199,10.199H437.453z M241.043,387.775l-103.657,91.49V297.006L241.043,387.775z M245.802,410.782v80.82
	h-91.567L245.802,410.782z M266.2,392.778l108.415-95.691v182.178l-48.632-42.923c-4.223-3.728-10.668-3.325-14.396,0.898
	c-3.727,4.223-3.325,10.668,0.898,14.396l45.282,39.967H266.2V392.778z M266.2,365.57v-84.035h95.211L266.2,365.57z
	 M245.802,364.828l-95.12-83.294h95.12V364.828z M427.254,491.602h-32.24V271.336c0-5.633-4.566-10.199-10.199-10.199H127.187
	c-5.633,0-10.199,4.566-10.199,10.199v220.266h-32.24V179.739l59.133-109.425l112.12-48.984l112.12,48.984l59.134,109.424v311.864
	H427.254z"/>
<g>
</g>
<g>
</g>
<g>
</g>
<g>
</g>
<g>
</g>
<g>
</g>
<g>
</g>
<g>
</g>
<g>
</g>
<g>
</g>
<g>
</g>
<g>
</g>
<g>
</g>
<g>
</g>
<g>
</g>
</svg>
